<svg xmlns="http://www.w3.org/2000/svg" width="16" height="16" fill="#E4405F" viewBox="0 0 24 24">
  <path d="M12 0C8.74 0 8.333.015 7.053.072 5.775.132 4.905.333 4.14.63c-.789.306-1.459.717-2.126 1.384S.935 3.35.63 4.14C.333 4.905.131 5.775.072 7.053.012 8.333 0 8.74 0 12s.015 3.667.072 4.947c.06 1.277.261 2.148.558 2.913.306.788.717 1.459 1.384 2.126.667.666 1.336 1.079 2.126 1.384.766.296 1.636.499 2.913.558C8.333 23.988 8.74 24 12 24s3.667-.015 4.947-.072c1.277-.06 2.148-.262 2.913-.558.788-.306 1.459-.718 2.126-1.384.666-.667 1.079-1.335 1.384-2.126.296-.765.499-1.636.558-2.913.06-1.28.072-1.687.072-4.947s-.015-3.667-.072-4.947c-.06-1.277-.262-2.149-.558-2.913-.306-.789-.718-1.459-1.384-2.126C21.319 1.347 20.651.935 19.86.63c-.765-.297-1.636-.499-2.913-.558C15.667.012 15.26 0 12 0zm0 2.16c3.203 0 3.584.016 4.85.071 1.17.055 1.805.249 2.227.412.56.216.96.472 1.381.893.42.42.677.82.893 1.38.163.423.358 1.058.413 2.227.057 1.266.07 1.646.07 4.85s-.015 3.584-.071 4.85c-.055 1.17-.249 1.805-.412 2.227-.216.56-.472.96-.893 1.381-.42.42-.82.677-1.38.893-.423.163-1.058.358-2.227.413-1.266.057-1.647.07-4.85.07s-3.584-.015-4.85-.071c-1.17-.055-1.805-.249-2.227-.412a3.486 3.486 0 0 1-1.381-.893c-.42-.42-.677-.82-.893-1.381-.163-.423-.358-1.058-.413-2.227-.057-1.266-.07-1.647-.07-4.85s.016-3.584.071-4.85c.055-1.17.249-1.805.412-2.227.216-.56.472-.96.893-1.381.42-.42.82-.677 1.38-.893.423-.163 1.058-.358 2.227-.413 1.266-.057 1.647-.07 4.85-.07zM12 5.838a6.162 6.162 0 1 0 0 12.324 6.162 6.162 0 0 0 0-12.324zM12 16a3.838 3.838 0 1 1 0-7.676A3.838 3.838 0 0 1 12 16zm6.406-11.845a1.44 1.44 0 1 1-2.88 0 1.44 1.44 0 0 1 2.88 0z"/>
</svg>
