<svg xmlns="http://www.w3.org/2000/svg" width="16" height="16" fill="#1456F0" viewBox="0 0 16 16">
  <path d="M12.023.718a.5.5 0 0 1 .402 0l1.21.605a.5.5 0 0 0 .223.054V2.5a.5.5 0 0 0-.223-.054l-1.21-.605a.5.5 0 0 1-.402 0l-1.21.605A.5.5 0 0 0 10.5 3a.5.5 0 0 0 .223-.054l1.21-.605zM5.5 3.5a.5.5 0 0 1 .402 0l1.21.605a.5.5 0 0 0 .223.054V5.5a.5.5 0 0 0-.223-.054l-1.21-.605a.5.5 0 0 1-.402 0l-1.21.605A.5.5 0 0 0 4 6.5a.5.5 0 0 0 .223-.054l1.21-.605zM8 4a.5.5 0 0 1 .5.5v1.01a.5.5 0 1 1-1 0V4.5a.5.5 0 0 1 .5-.5zM3 10.5a.5.5 0 0 1 .5-.5h1.01a.5.5 0 1 1 0 1H3.5a.5.5 0 0 1-.5-.5zm9.496 3.904a.5.5 0 0 1 .402 0l1.21.605a.5.5 0 0 0 .223.054v-1.437a.5.5 0 0 0-.223.054l-1.21.605zM11 11a3 3 0 1 1-6 0 3 3 0 0 1 6 0z"/>
</svg>
